PathFileType	4	(X/Y/Z)	C:\Users\Basilio\Documents\Thesis Gigler\squatting_fais\c3dfiles\076\SJ_pre4\markers_experimental.trc
DataRate	CameraRate	NumFrames	NumMarkers	Units	OrigDataRate	OrigDataStartFrame	OrigNumFrames
200.000000	200.000000	4	61	mm	200.000000	1398	1864
Frame#	Time	FHD			LBHD			RBHD			C7			T10			CLAV			LSHO			LUUPA			LMUPA			LDUPA			LLEP			LMEP			LRAD			LUL			LRFIN			RSHO			RUPA1			RMUPA			RDUPA			RLEP			RMEP			RRAD			RUL			RUFIN			LASI			RASI			USACR			LSACR			RSACR			LTHI1			LTHI2			LTHI3			LTHI4			LLFC			LMFC			LTIB1			LTIB2			LTIB3			LTIB4			LLMAL			LMMAL			LHEE			LMT1			LMT2			LMT5			RTHI			RTHI2			RTHI3			RTHI4			RLFC			RMFC			RTIB1			RTIB2			RTIB3			RTIB4			RLMAL			RMMAL			RHEE			RMT1			RMT2			RMT5			
		X1	Y1	Z1	X2	Y2	Z2	X3	Y3	Z3	X4	Y4	Z4	X5	Y5	Z5	X6	Y6	Z6	X7	Y7	Z7	X8	Y8	Z8	X9	Y9	Z9	X10	Y10	Z10	X11	Y11	Z11	X12	Y12	Z12	X13	Y13	Z13	X14	Y14	Z14	X15	Y15	Z15	X16	Y16	Z16	X17	Y17	Z17	X18	Y18	Z18	X19	Y19	Z19	X20	Y20	Z20	X21	Y21	Z21	X22	Y22	Z22	X23	Y23	Z23	X24	Y24	Z24	X25	Y25	Z25	X26	Y26	Z26	X27	Y27	Z27	X28	Y28	Z28	X29	Y29	Z29	X30	Y30	Z30	X31	Y31	Z31	X32	Y32	Z32	X33	Y33	Z33	X34	Y34	Z34	X35	Y35	Z35	X36	Y36	Z36	X37	Y37	Z37	X38	Y38	Z38	X39	Y39	Z39	X40	Y40	Z40	X41	Y41	Z41	X42	Y42	Z42	X43	Y43	Z43	X44	Y44	Z44	X45	Y45	Z45	X46	Y46	Z46	X47	Y47	Z47	X48	Y48	Z48	X49	Y49	Z49	X50	Y50	Z50	X51	Y51	Z51	X52	Y52	Z52	X53	Y53	Z53	X54	Y54	Z54	X55	Y55	Z55	X56	Y56	Z56	X57	Y57	Z57	X58	Y58	Z58	X59	Y59	Z59	X60	Y60	Z60	X61	Y61	Z61	

1399	6.99	-457.8023986816407	1614.390502929688	-899.7966308593752	-559.2247924804689	1536.36328125	-1030.882080078125	-577.1077880859376	1520.6826171875	-880.391052246094	-607.6691894531251	1417.64208984375	-955.6724243164065	-638.8273315429689	1097.098754882813	-960.4622802734377	-467.5488586425782	1341.310180664063	-957.5085449218752	-538.3519897460939	1365.537719726563	-1133.4111328125	-552.8366088867189	1208.168823242188	-1260.662475585938	-537.8148193359376	1164.578125	-1242.429931640625	-561.0332641601564	1149.205810546875	-1296.046630859375	-574.4730224609376	1100.262573242188	-1323.465576171875	-652.6268310546876	1088.945190429688	-1284.705444335938	-572.9357299804689	919.9641113281252	-1160.062744140625	-526.8741455078126	891.5183105468752	-1195.989135742188	-527.9696044921876	939.5761718750002	-1133.484375	-531.7750244140626	1355.35888671875	-787.9721679687502	-571.8205566406251	1207.6142578125	-657.7606201171876	-538.5689086914064	1169.6669921875	-660.3195800781251	-578.6387329101564	1146.83642578125	-621.1442871093751	-571.1255493164064	1077.225830078125	-601.7524414062501	-641.9412841796876	1063.1142578125	-652.4931030273439	-552.8555297851564	904.963806152344	-770.891784667969	-502.5402221679689	920.068786621094	-794.254577636719	-504.268280029297	880.2293701171877	-731.7200317382814	-480.7919006347657	914.0976562500002	-1071.694702148438	-475.8447265625001	904.984802246094	-864.3208618164065	-642.2171630859376	986.248718261719	-960.120056152344	-651.0816650390626	959.478942871094	-989.9993286132815	-648.5122680664064	954.376159667969	-933.6955566406252	-579.1491699218751	764.8388061523439	-1140.167114257813	-556.4297485351564	683.0242309570314	-1135.552368164063	-507.3872985839845	683.1324462890626	-1129.922973632813	-588.5314941406251	634.4082641601564	-1116.540893554688	-596.8150634765626	472.7166442871095	-1083.4794921875	-546.7418823242189	468.2254638671876	-976.8372192382815	-564.3041992187501	324.8186035156251	-1015.995239257813	-604.8063354492189	271.1708984375001	-1074.22412109375	-566.7734375000001	273.5380554199219	-1044.881225585938	-581.5796508789064	198.5947723388672	-1007.035339355469	-658.3615722656251	79.08738708496095	-1042.016235351563	-608.2464599609376	89.80642700195314	-971.1156005859377	-695.6835937500001	42.77130126953126	-979.1607055664065	-492.2628784179689	53.20957946777345	-1039.663208007813	-501.8802490234376	54.7200393676758	-1077.25341796875	-538.0759887695314	44.19305801391602	-1118.196044921875	-538.7756347656251	661.8819580078126	-776.6499633789065	-490.3679199218751	616.3097534179689	-763.3102416992189	-456.9872436523439	626.1019287109376	-767.9752807617189	-495.9248962402345	534.8571777343751	-778.3890380859377	-478.4136352539064	478.2531127929689	-776.4675292968752	-421.2842102050782	473.2366333007814	-880.0149536132815	-403.3638610839845	361.9069824218751	-766.1936035156251	-454.4400329589845	266.2274475097657	-750.1523437500001	-408.6397094726564	276.5524291992188	-746.4796752929689	-373.8962707519532	235.0651397705079	-767.9234619140626	-395.1549072265626	79.43433380126955	-733.4455566406251	-362.4837646484376	100.9862442016602	-810.0776977539065	-435.0423889160157	48.59266281127931	-792.2548828125002	-232.2971343994141	71.68820190429689	-766.2623291015626	-236.0359497070313	74.49829101562501	-720.2185668945314	-269.2156372070313	42.82855224609376	-677.7807617187501	
1400	6.995	-457.393524169922	1614.400390625	-899.5203247070315	-558.5451660156251	1536.946166992188	-1031.200439453125	-577.7675781250001	1521.403076171875	-881.066833496094	-607.8603515625001	1417.849609375	-955.9836425781252	-638.9304809570314	1097.340087890625	-960.7542114257815	-467.951873779297	1341.59033203125	-957.8576660156252	-538.5259399414064	1365.65283203125	-1133.598022460938	-552.4619140625001	1208.361938476563	-1260.982543945313	-536.7565307617189	1164.533935546875	-1242.3798828125	-560.6464843750001	1149.4169921875	-1296.37939453125	-573.9814453125001	1100.391357421875	-1323.878662109375	-652.1313476562501	1089.071655273438	-1285.40673828125	-573.2730712890626	920.0410766601565	-1160.443115234375	-526.9486694335939	891.576843261719	-1196.160766601563	-528.1579589843751	939.5664672851565	-1133.689819335938	-532.1970214843751	1355.507446289063	-788.271179199219	-572.3894653320314	1207.721923828125	-658.1058349609376	-539.0944824218751	1169.908081054688	-660.6630859375001	-579.2003173828126	1147.006103515625	-621.4040527343751	-571.8508911132814	1077.301635742188	-601.9353637695314	-642.4303588867189	1063.193359375	-652.8294677734376	-552.8417358398439	905.3101806640627	-771.0855102539065	-502.4935302734376	920.3778076171877	-794.3651123046877	-504.3774719238282	880.5433349609377	-731.7879028320314	-481.0113220214845	914.195983886719	-1071.856689453125	-475.770233154297	905.4219360351565	-864.5268554687502	-642.2584838867189	986.510681152344	-960.3275146484377	-651.2236938476564	959.7940063476565	-990.172302246094	-648.5031738281251	954.8314208984377	-933.8292236328127	-579.9780883789064	764.8532714843751	-1139.963256835938	-557.5059204101564	683.0739746093751	-1135.493774414063	-508.3709411621095	683.0950927734376	-1130.048095703125	-589.4028930664064	634.5078125000001	-1116.2919921875	-597.9871826171876	472.9508361816407	-1083.18896484375	-547.5241088867189	468.4308471679689	-976.7590332031252	-565.4223632812501	325.2837219238282	-1016.2587890625	-605.4201049804689	271.4815673828126	-1074.067260742188	-567.6955566406251	273.9686584472657	-1045.037963867188	-581.8924560546876	198.7727966308594	-1007.10595703125	-658.4343872070314	79.01436614990236	-1041.930786132813	-608.3563842773439	89.91493988037111	-971.1900024414065	-695.5704345703126	42.8260726928711	-979.1734008789065	-492.2080078125001	53.17983627319337	-1039.7724609375	-501.8863220214845	54.66464996337892	-1077.320556640625	-538.1432495117189	44.17804336547852	-1118.191040039063	-538.7710571289064	662.3190307617189	-776.654724121094	-490.118133544922	616.8930664062501	-763.5698852539064	-456.7410278320314	626.8251342773439	-768.4456787109377	-495.855926513672	535.3526611328126	-778.7231445312502	-478.588104248047	478.7359924316407	-776.7806396484377	-421.719451904297	473.628631591797	-880.5072021484377	-403.391326904297	362.0228881835938	-766.4089965820314	-454.8298645019532	266.6602172851563	-750.5217285156251	-409.0144653320314	276.8454589843751	-746.8417358398439	-374.2446594238282	235.3761444091797	-768.299255371094	-396.1555175781251	79.5064163208008	-734.2210083007814	-362.4981994628907	101.2384109497071	-810.2373657226565	-435.6491088867189	49.02819061279298	-793.3547363281252	-232.1624908447266	71.40584564208986	-765.2237548828126	-236.7315826416016	73.94945526123048	-719.6329345703126	-270.7931823730469	42.34895324707032	-677.5691528320314	
1401	7	-456.9018859863282	1614.476806640625	-899.364929199219	-557.9214477539064	1537.504760742188	-1031.403686523438	-578.2105712890626	1522.02490234375	-881.503356933594	-608.0874023437501	1418.164916992188	-956.2556152343752	-638.8676147460939	1097.689575195313	-961.0883789062502	-468.3996582031251	1341.890991210938	-958.1826171875002	-538.7310180664064	1366.013793945313	-1133.918579101563	-552.2209472656251	1208.523315429688	-1261.2333984375	-537.2546386718751	1164.983764648438	-1242.907592773438	-560.1928100585939	1149.637939453125	-1296.7041015625	-573.4448852539064	1100.605102539063	-1324.193481445313	-651.7586059570314	1089.136352539063	-1285.98388671875	-573.3887329101564	920.2639770507815	-1160.803955078125	-526.9561157226564	891.6197509765627	-1196.32763671875	-528.1959228515626	939.546325683594	-1133.883422851563	-532.6272583007814	1355.654174804688	-788.5071411132815	-572.7697753906251	1207.9931640625	-658.3759155273439	-539.6479492187501	1169.994384765625	-660.9531250000001	-579.8021850585939	1147.218872070313	-621.7095336914064	-572.4859619140626	1077.516357421875	-602.0526123046876	-642.9829101562501	1063.275634765625	-653.2516479492189	-552.7218017578126	905.703308105469	-771.2906494140627	-502.3287963867189	920.881286621094	-794.3147583007815	-504.3068237304689	881.0388183593752	-731.9037475585939	-481.2315063476564	914.2427368164065	-1072.023193359375	-475.6672973632814	905.8143310546877	-864.7056274414065	-642.2660522460939	986.8811035156252	-960.516540527344	-651.3522338867189	960.1833496093752	-990.2719726562502	-648.4625854492189	955.1521606445315	-933.8765869140627	-580.7295532226564	764.9696044921876	-1139.874267578125	-558.3387451171876	683.1390991210939	-1135.350830078125	-509.2395935058595	682.9816284179689	-1130.120727539063	-590.3611450195314	634.6463623046876	-1116.0224609375	-599.3444213867189	473.1467895507814	-1082.888793945313	-548.2210083007814	468.4415588378907	-976.5023193359377	-566.0299682617189	325.5905456542969	-1016.268737792969	-606.1447753906251	271.8032836914063	-1073.893920898438	-568.5762329101564	274.4746093750001	-1045.147705078125	-582.1943969726564	198.926254272461	-1007.189880371094	-658.0886230468751	79.1438446044922	-1041.966918945313	-608.3035278320314	89.93727874755861	-971.2398071289065	-695.6135253906251	42.77761459350587	-979.2024536132815	-492.2027587890626	53.22620010375978	-1039.7763671875	-501.8425598144532	54.50391769409181	-1077.37744140625	-537.3535766601564	43.88932037353516	-1118.264892578125	-538.5912475585939	662.9774169921876	-776.6943359375002	-490.0483398437501	617.3991088867189	-763.8476562500001	-456.5518798828126	627.4030761718751	-768.8193359375002	-495.753387451172	535.8235473632814	-779.0140380859377	-478.7899169921876	479.190643310547	-777.0050048828127	-422.2937011718751	474.0787658691407	-880.915466308594	-403.9192504882814	362.3064575195313	-766.7816162109376	-455.2720336914064	267.0158996582032	-750.8814697265626	-409.4488830566407	277.2078552246094	-747.2367553710939	-374.7745056152344	235.5210876464844	-768.681823730469	-397.1934509277345	79.5911331176758	-734.9381713867189	-362.9027099609376	101.5181121826172	-810.7063598632815	-436.2147827148439	49.36727142333986	-794.626159667969	-233.1010131835938	71.38684844970705	-764.6757202148439	-238.3413696289063	73.86272430419923	-719.0237426757814	-272.6142578125001	41.8442611694336	-677.4642944335939	
1402	7.005	-456.3912353515626	1613.840454101563	-899.2355957031252	-557.0730590820314	1537.977661132813	-1031.9765625	-578.1916503906251	1522.691162109375	-881.761901855469	-608.2987670898439	1418.383911132813	-956.5725097656252	-638.7974243164064	1098.011596679688	-961.3011474609377	-468.7277832031251	1342.190307617188	-958.3538818359377	-538.9296264648439	1366.22265625	-1134.036010742188	-551.7856445312501	1208.743286132813	-1261.4619140625	-536.8893432617189	1165.190307617188	-1243.131958007813	-559.7179565429689	1149.82373046875	-1297.021606445313	-572.8246459960939	1100.7548828125	-1324.444458007813	-651.2598876953126	1089.399291992188	-1286.635009765625	-573.5622558593751	920.4170532226565	-1161.059448242188	-527.0634155273439	891.6795654296877	-1196.442626953125	-528.6034545898439	939.665954589844	-1134.171264648438	-533.0120849609376	1355.816284179688	-788.782897949219	-573.2703857421876	1208.252685546875	-658.6172485351564	-540.1414184570314	1170.2314453125	-661.0906372070314	-580.4065551757814	1147.545288085938	-621.9982299804689	-573.0955810546876	1077.859375	-602.2939453125001	-643.4126586914064	1063.511474609375	-653.5911254882814	-552.4622802734376	906.198669433594	-771.467468261719	-502.2867431640626	921.307800292969	-794.3880615234377	-504.2219543457032	881.5532226562502	-731.9973144531251	-481.5122985839845	914.3397216796877	-1072.204223632813	-474.6623840332032	906.4124145507815	-864.4736328125002	-642.2624511718751	987.282897949219	-960.6750488281252	-651.4665527343751	960.3996582031252	-990.3247070312502	-648.3473510742189	955.5913696289065	-933.976013183594	-581.6359252929689	765.0823974609376	-1139.580810546875	-559.3388671875001	683.1330566406251	-1135.103759765625	-510.0433349609376	682.8839721679689	-1130.068725585938	-591.2343750000001	634.8186645507814	-1115.682373046875	-600.3693847656251	473.3213500976564	-1082.493896484375	-549.0166625976564	468.4950256347657	-976.2988891601565	-566.6776733398439	325.6968078613282	-1016.089904785156	-607.0432739257814	272.1703491210938	-1073.69677734375	-569.2075805664064	274.8032226562501	-1044.967529296875	-582.5162963867189	199.095199584961	-1007.23583984375	-658.1670532226564	79.10617828369142	-1041.880615234375	-608.3179931640626	89.99737548828126	-971.2945556640627	-695.5833129882814	42.98529052734376	-979.1384277343752	-492.2291870117189	53.21277618408205	-1039.817626953125	-501.7877807617189	54.45845031738283	-1077.400390625	-538.1322631835939	44.07882690429688	-1118.341552734375	-538.3386230468751	663.5547485351564	-776.7645263671877	-489.8653869628907	617.9180297851564	-764.1254882812501	-456.2993469238282	627.9219970703126	-769.0875244140627	-495.7286987304689	536.3718872070314	-779.1470947265627	-478.9387512207032	479.7506713867189	-777.2534790039065	-422.7920532226564	474.5813903808595	-881.5457153320315	-404.3638000488282	362.5402526855469	-767.1284790039064	-455.8158569335939	267.3664855957032	-751.2421264648439	-409.9649353027345	277.4005737304688	-747.6673583984376	-375.4783020019532	235.6668395996094	-769.2570800781252	-398.5557556152345	79.51828002929689	-735.8708496093751	-363.5443725585938	102.0067596435547	-811.2142333984377	-437.0384521484376	49.84381484985353	-796.1463012695315	-234.788070678711	71.22825622558595	-764.5678100585939	-239.4475250244141	73.39284515380861	-718.4635009765626	-274.3643493652344	41.1734733581543	-677.5985107421876	
